Normalized EMG Linear Envelopes
nRows=197
nColumns=4

endheader
time	 med_gas_r	  soleus_r	 tib_ant_r	
3.1873	  0.438191	  0.278598	  0.012698	
3.24979	  0.437696	  0.280096	  0.012778	
3.31229	  0.432591	  0.274999	  0.012306	
3.37478	  0.442756	  0.263959	  0.011671	
3.43728	  0.439011	  0.261109	  0.011373	
3.49978	  0.436100	  0.254920	  0.011626	
3.56227	  0.434063	  0.261912	  0.012136	
3.62477	  0.429245	  0.271212	  0.012500	
3.68726	  0.446010	  0.273737	  0.012733	
3.74976	  0.444237	  0.281686	  0.013102	
3.81226	  0.440267	  0.281534	  0.013464	
3.87475	  0.448193	  0.287519	  0.013482	
3.93725	  0.449254	  0.284830	  0.013214	
3.99974	  0.466271	  0.269870	  0.012854	
4.06224	  0.472982	  0.265042	  0.012624	
4.12474	  0.469630	  0.257141	  0.012308	
4.18723	  0.469751	  0.261064	  0.011938	
4.24973	  0.457933	  0.269839	  0.011753	
4.31222	  0.450951	  0.272346	  0.011722	
4.37472	  0.450712	  0.283927	  0.011673	
4.43722	  0.452659	  0.286418	  0.011739	
4.49971	  0.460867	  0.289836	  0.011923	
4.56221	  0.464906	  0.295467	  0.012182	
4.6247	  0.472964	  0.289014	  0.012444	
4.6872	  0.486769	  0.285748	  0.012557	
4.7497	  0.497370	  0.272975	  0.012351	
4.81219	  0.522951	  0.270265	  0.011886	
4.87469	  0.545377	  0.278005	  0.011562	
4.93718	  0.571534	  0.297325	  0.011566	
4.99968	  0.584540	  0.316360	  0.012021	
5.06218	  0.581469	  0.333349	  0.012871	
5.12467	  0.571302	  0.349462	  0.013822	
5.18717	  0.566200	  0.359399	  0.014592	
5.24966	  0.563725	  0.357363	  0.014951	
5.31216	  0.562665	  0.341044	  0.014720	
5.37466	  0.558304	  0.320393	  0.015020	
5.43715	  0.562916	  0.313413	  0.016973	
5.49965	  0.574237	  0.316061	  0.021545	
5.56214	  0.596516	  0.329043	  0.029503	
5.62464	  0.613154	  0.362306	  0.041898	
5.68714	  0.629253	  0.412186	  0.056325	
5.74963	  0.632009	  0.454780	  0.067530	
5.81213	  0.642027	  0.466583	  0.073179	
5.87462	  0.657594	  0.445513	  0.077886	
5.93712	  0.679989	  0.431576	  0.079794	
5.99962	  0.701101	  0.431757	  0.080488	
6.06211	  0.723766	  0.438249	  0.085485	
6.12461	  0.732611	  0.438353	  0.094174	
6.1871	  0.728488	  0.445120	  0.108493	
6.2496	  0.717701	  0.461858	  0.129284	
6.3121	  0.708069	  0.487479	  0.156752	
6.37459	  0.712995	  0.509241	  0.180362	
6.43709	  0.733238	  0.529870	  0.197872	
6.49958	  0.763584	  0.544730	  0.220614	
6.56208	  0.793518	  0.549420	  0.244910	
6.62458	  0.809731	  0.546423	  0.262906	
6.68707	  0.813731	  0.546624	  0.273458	
6.74957	  0.802534	  0.541120	  0.276701	
6.81206	  0.780029	  0.528956	  0.272340	
6.87456	  0.767873	  0.518648	  0.272901	
6.93706	  0.786355	  0.513246	  0.287074	
6.99955	  0.821688	  0.506501	  0.309099	
7.06205	  0.838502	  0.519444	  0.327253	
7.12454	  0.835795	  0.553147	  0.336890	
7.18704	  0.835632	  0.606977	  0.342247	
7.24954	  0.848938	  0.660235	  0.349553	
7.31203	  0.867755	  0.684274	  0.359838	
7.37453	  0.888260	  0.681122	  0.361061	
7.43702	  0.888378	  0.669201	  0.355283	
7.49952	  0.884570	  0.647399	  0.348432	
7.56202	  0.857057	  0.636220	  0.347847	
7.62451	  0.822386	  0.644476	  0.354877	
7.68701	  0.789905	  0.664882	  0.370964	
7.7495	  0.763878	  0.700980	  0.397103	
7.812	  0.753394	  0.728623	  0.424763	
7.8745	  0.745251	  0.746773	  0.448417	
7.93699	  0.753772	  0.757281	  0.471947	
7.99949	  0.751152	  0.761834	  0.502776	
8.06198	  0.767974	  0.779149	  0.529719	
8.12448	  0.789270	  0.798948	  0.544430	
8.18698	  0.829193	  0.815828	  0.539631	
8.24947	  0.869110	  0.813354	  0.527260	
8.31197	  0.901294	  0.809063	  0.523568	
8.37446	  0.897664	  0.795933	  0.534630	
8.43696	  0.866044	  0.758998	  0.564482	
8.49946	  0.831615	  0.712099	  0.610790	
8.56195	  0.803366	  0.676960	  0.654100	
8.62445	  0.796359	  0.668758	  0.665289	
8.68694	  0.779536	  0.682641	  0.650482	
8.74944	  0.777717	  0.702539	  0.626807	
8.81194	  0.791758	  0.725778	  0.593910	
8.87443	  0.829369	  0.748810	  0.568505	
8.93693	  0.880116	  0.768438	  0.554051	
8.99942	  0.905552	  0.804251	  0.562914	
9.06192	  0.906048	  0.832798	  0.597364	
9.12442	  0.874927	  0.850241	  0.643341	
9.18691	  0.851275	  0.857531	  0.686880	
9.24941	  0.843953	  0.846557	  0.716728	
9.3119	  0.826697	  0.837001	  0.732895	
9.3744	  0.811621	  0.814912	  0.723350	
9.4369	  0.806359	  0.787048	  0.697872	
9.49939	  0.826953	  0.788212	  0.687320	
9.56189	  0.838282	  0.813967	  0.715830	
9.62438	  0.843602	  0.833370	  0.763056	
9.68688	  0.851483	  0.822697	  0.802825	
9.74938	  0.846058	  0.783377	  0.806917	
9.81187	  0.850622	  0.765041	  0.766423	
9.87437	  0.857025	  0.785304	  0.731387	
9.93686	  0.872954	  0.828914	  0.707007	
9.99936	  0.886398	  0.872047	  0.689333	
10.0619	  0.871370	  0.894678	  0.680488	
10.1244	  0.855339	  0.911311	  0.677634	
10.1868	  0.843467	  0.915957	  0.687147	
10.2493	  0.843399	  0.900811	  0.712819	
10.3118	  0.849924	  0.877375	  0.755785	
10.3743	  0.836878	  0.855820	  0.811561	
10.4368	  0.819947	  0.837057	  0.840717	
10.4993	  0.820120	  0.824586	  0.824302	
10.5618	  0.825205	  0.801020	  0.797830	
10.6243	  0.819869	  0.770831	  0.783585	
10.6868	  0.775832	  0.769617	  0.794961	
10.7493	  0.732842	  0.809908	  0.816057	
10.8118	  0.734136	  0.863316	  0.832269	
10.8743	  0.753233	  0.883067	  0.817219	
10.9368	  0.796509	  0.869676	  0.793536	
10.9993	  0.839259	  0.847555	  0.763479	
11.0618	  0.834217	  0.838532	  0.741612	
11.1243	  0.798004	  0.855780	  0.722992	
11.1868	  0.752016	  0.871151	  0.699603	
11.2493	  0.690552	  0.866819	  0.686344	
11.3118	  0.645591	  0.834367	  0.704827	
11.3743	  0.583111	  0.805997	  0.751172	
11.4368	  0.515166	  0.795580	  0.803303	
11.4993	  0.480986	  0.780178	  0.837332	
11.5618	  0.497681	  0.737508	  0.825836	
11.6243	  0.517566	  0.684227	  0.778498	
11.6868	  0.478001	  0.625354	  0.723292	
11.7492	  0.419441	  0.579150	  0.684179	
11.8117	  0.386890	  0.542828	  0.671446	
11.8742	  0.400765	  0.510798	  0.680736	
11.9367	  0.428519	  0.481158	  0.698380	
11.9992	  0.410325	  0.447325	  0.712421	
12.0617	  0.352584	  0.423884	  0.721324	
12.1242	  0.302450	  0.422676	  0.722826	
12.1867	  0.282071	  0.437753	  0.714391	
12.2492	  0.280358	  0.453524	  0.687206	
12.3117	  0.271342	  0.450747	  0.632376	
12.3742	  0.257150	  0.440057	  0.564022	
12.4367	  0.251935	  0.446764	  0.523193	
12.4992	  0.254988	  0.475477	  0.518258	
12.5617	  0.261053	  0.494259	  0.534044	
12.6242	  0.269731	  0.489234	  0.546037	
12.6867	  0.281246	  0.482731	  0.534316	
12.7492	  0.283482	  0.479402	  0.502233	
12.8117	  0.281328	  0.482547	  0.467906	
12.8742	  0.277478	  0.483488	  0.433028	
12.9367	  0.270405	  0.473848	  0.405197	
12.9992	  0.272055	  0.472640	  0.393974	
13.0617	  0.277987	  0.493596	  0.391405	
13.1242	  0.270971	  0.531137	  0.378082	
13.1867	  0.266295	  0.547788	  0.357176	
13.2492	  0.265228	  0.523665	  0.337501	
13.3116	  0.253877	  0.479391	  0.324547	
13.3741	  0.239376	  0.438796	  0.316704	
13.4366	  0.243144	  0.421441	  0.306864	
13.4991	  0.250196	  0.423360	  0.299892	
13.5616	  0.257019	  0.433598	  0.299512	
13.6241	  0.276024	  0.456771	  0.309808	
13.6866	  0.287803	  0.478427	  0.321136	
13.7491	  0.282038	  0.488620	  0.309968	
13.8116	  0.278434	  0.487016	  0.274409	
13.8741	  0.282862	  0.483242	  0.240186	
13.9366	  0.278535	  0.488270	  0.219614	
13.9991	  0.276443	  0.510549	  0.214978	
14.0616	  0.287728	  0.541374	  0.221140	
14.1241	  0.294486	  0.552462	  0.229181	
14.1866	  0.287960	  0.542832	  0.230397	
14.2491	  0.274213	  0.534082	  0.233746	
14.3116	  0.262504	  0.534465	  0.241417	
14.3741	  0.261350	  0.551567	  0.251327	
14.4366	  0.257835	  0.571719	  0.259658	
14.4991	  0.246465	  0.559743	  0.261873	
14.5616	  0.235735	  0.544411	  0.259605	
14.6241	  0.230081	  0.539987	  0.254149	
14.6866	  0.227900	  0.544620	  0.253328	
14.7491	  0.229169	  0.528283	  0.253304	
14.8116	  0.226173	  0.496149	  0.251978	
14.874	  0.222864	  0.472138	  0.256353	
14.9365	  0.219940	  0.454157	  0.258599	
14.999	  0.213675	  0.432700	  0.258752	
15.0615	  0.212981	  0.424564	  0.261375	
15.124	  0.225742	  0.437674	  0.260554	
15.1865	  0.246269	  0.467358	  0.260268	
15.249	  0.255928	  0.482961	  0.252677	
15.3115	  0.256821	  0.475540	  0.243087	
15.374	  0.256887	  0.478639	  0.241134	
15.4365	  0.254126	  0.495886	  0.240196	
